<svg width="80" height="26" viewBox="0 0 80 26" fill="none" xmlns="http://www.w3.org/2000/svg">
<g clip-path="url(#clip0_48_506)">
<path d="M18.23 18.71C18.463 19.281 18.713 19.71 18.982 19.996C19.268 20.264 19.545 20.406 19.813 20.425V20.961C18.1864 20.9016 16.5587 20.8749 14.931 20.881C12.893 20.881 11.391 20.907 10.425 20.961V20.425C11.105 20.389 11.587 20.309 11.873 20.183C12.159 20.041 12.303 19.799 12.303 19.46C12.303 19.138 12.195 18.71 11.98 18.173L10.398 13.777H4.98L4.524 14.984C3.934 16.502 3.638 17.664 3.638 18.468C3.638 19.201 3.844 19.701 4.255 19.969C4.667 20.237 5.275 20.389 6.079 20.425V20.961C4.9083 20.9113 3.73674 20.8846 2.565 20.881C1.725 20.881 1.036 20.907 0.5 20.961V20.425C0.947 20.353 1.367 20.076 1.76 19.594C2.154 19.111 2.556 18.343 2.968 17.289L8.923 1.984C9.39604 2.01562 9.86992 2.0333 10.344 2.037C10.702 2.037 11.167 2.019 11.739 1.984L18.23 18.71ZM10.21 13.24L7.77 6.54L5.194 13.24H10.21ZM25.832 6.674C26.529 6.674 27.182 6.754 27.79 6.915C28.416 7.058 28.89 7.219 29.212 7.398C29.408 7.505 29.569 7.558 29.695 7.558C30.07 7.558 30.294 7.273 30.365 6.701H30.902C30.83 7.631 30.794 9.238 30.794 11.526H30.258C30.115 10.346 29.775 9.355 29.238 8.551C28.72 7.729 27.96 7.318 26.958 7.318C26.511 7.318 26.136 7.452 25.832 7.72C25.528 7.988 25.376 8.354 25.376 8.819C25.376 9.409 25.573 9.935 25.966 10.4C26.359 10.847 26.976 11.4 27.816 12.062C27.853 12.08 28.112 12.285 28.595 12.678C29.596 13.5 30.329 14.233 30.795 14.876C31.259 15.502 31.492 16.279 31.492 17.208C31.4954 17.9837 31.2403 18.7384 30.767 19.353C30.285 19.978 29.623 20.469 28.782 20.827C27.96 21.167 27.057 21.337 26.073 21.337C24.947 21.337 24.026 21.113 23.31 20.666C23.0679 20.5333 22.8174 20.4167 22.56 20.317C22.3711 20.247 22.1714 20.2108 21.97 20.21C21.63 20.21 21.38 20.523 21.218 21.148H20.682C20.753 20.13 20.789 18.343 20.789 15.788H21.326C21.486 17.253 21.88 18.432 22.506 19.326C23.132 20.219 23.918 20.666 24.866 20.666C25.313 20.666 25.68 20.541 25.966 20.291C26.27 20.041 26.422 19.674 26.422 19.191C26.422 18.691 26.315 18.245 26.1 17.851C25.9078 17.4643 25.6542 17.1114 25.349 16.806C25.063 16.484 24.589 16.029 23.927 15.439C23.3397 14.901 22.7675 14.3468 22.211 13.777C21.8076 13.3526 21.4644 12.8748 21.191 12.357C20.9195 11.788 20.782 11.1644 20.789 10.534C20.789 9.766 21.021 9.087 21.486 8.497C21.951 7.907 22.568 7.46 23.337 7.157C24.128 6.83084 24.9764 6.6666 25.832 6.674ZM39.101 8.685C39.906 7.345 41.327 6.675 43.366 6.675C44.796 6.675 45.806 7.032 46.397 7.746C46.665 8.068 46.862 8.506 46.987 9.06C47.112 9.596 47.175 10.31 47.175 11.204V18.468C47.175 19.201 47.282 19.71 47.497 19.996C47.729 20.264 48.123 20.398 48.677 20.398V20.961C46.746 20.889 45.494 20.854 44.922 20.854C44.314 20.854 43.044 20.889 41.112 20.961V20.398C41.578 20.398 41.9 20.264 42.078 19.996C42.258 19.71 42.347 19.201 42.347 18.468V9.757C42.347 9.185 42.239 8.765 42.025 8.497C41.828 8.211 41.497 8.068 41.032 8.068C40.514 8.068 40.058 8.256 39.664 8.631C39.289 8.988 39.101 9.444 39.101 9.998V18.468C39.101 19.201 39.191 19.71 39.369 19.996C39.548 20.264 39.869 20.398 40.335 20.398V20.961C38.547 20.889 37.366 20.854 36.795 20.854C36.186 20.854 34.845 20.889 32.771 20.961V20.398C33.325 20.398 33.709 20.264 33.924 19.996C34.157 19.71 34.273 19.201 34.273 18.468V3.216C34.273 2.394 34.156 1.796 33.924 1.421C33.709 1.045 33.324 0.858 32.771 0.858V0.295C33.325 0.348 33.879 0.375 34.434 0.375C36.294 0.375 37.849 0.25 39.1 0V8.685H39.101ZM59.57 6.674C60.964 6.674 62.09 7.246 62.95 8.39C63.807 9.533 64.237 11.204 64.237 13.402C64.237 16.243 63.664 18.28 62.52 19.513C61.375 20.728 59.864 21.336 57.987 21.336C57.414 21.336 56.932 21.318 56.538 21.283C56.177 21.2507 55.8238 21.1598 55.492 21.014C54.8363 20.7472 54.1349 20.6106 53.427 20.612C52.89 20.612 52.389 20.684 51.925 20.827C51.46 20.97 51.102 21.157 50.852 21.39L50.476 21.122C50.601 20.746 50.664 20.255 50.664 19.647V3.217C50.664 2.394 50.548 1.796 50.315 1.421C50.101 1.045 49.716 0.858 49.162 0.858V0.295C49.716 0.348 50.27 0.375 50.825 0.375C52.685 0.375 54.24 0.25 55.492 0V8.685C56.315 7.345 57.674 6.675 59.569 6.675L59.57 6.674ZM56.752 20.8C58.397 20.8 59.22 18.54 59.22 14.019C59.22 11.821 59.059 10.284 58.737 9.409C58.415 8.515 57.977 8.068 57.422 8.068C56.904 8.068 56.448 8.256 56.054 8.631C55.679 8.988 55.491 9.444 55.491 9.998V20.478C55.902 20.693 56.324 20.8 56.752 20.8ZM76.682 7.157C77.702 7.157 78.39 7.121 78.747 7.049V7.612C78.372 7.737 78.023 7.997 77.701 8.39C77.397 8.783 77.111 9.39 76.843 10.212L73.49 20.183L72.363 23.427C72.041 24.356 71.648 24.999 71.183 25.357C70.629 25.786 69.797 26 68.688 26C67.815 26.0054 66.9556 25.7838 66.194 25.357C65.424 24.946 65.04 24.32 65.04 23.48C65.04 22.855 65.282 22.355 65.765 21.98C66.247 21.604 66.882 21.416 67.669 21.416C68.42 21.416 69.01 21.586 69.439 21.926C69.869 22.266 70.083 22.756 70.083 23.4C70.083 23.829 69.931 24.23 69.627 24.606C69.341 24.999 68.912 25.286 68.34 25.464C68.518 25.5 68.823 25.517 69.252 25.517C70.486 25.517 71.335 24.803 71.8 23.373L71.934 22.917L65.684 9.113C65.416 8.506 65.148 8.103 64.879 7.907C64.629 7.711 64.379 7.612 64.129 7.612V7.05C65.559 7.158 67.016 7.211 68.501 7.211C69.663 7.211 70.959 7.158 72.39 7.051V7.613C71.871 7.613 71.47 7.649 71.183 7.721C70.915 7.792 70.781 7.953 70.781 8.203C70.781 8.346 70.816 8.489 70.888 8.632L74.188 16.486L75.314 13.055C75.654 12.018 75.824 11.107 75.824 10.321C75.824 9.481 75.644 8.828 75.287 8.364C75.1213 8.14048 74.9074 7.95705 74.6613 7.82724C74.4152 7.69743 74.1431 7.62455 73.865 7.614V7.05C74.527 7.122 75.465 7.157 76.682 7.157Z" fill="#5246D8"/>
</g>
<defs>
<clipPath id="clip0_48_506">
<rect width="79" height="26" fill="white" transform="translate(0.5)"/>
</clipPath>
</defs>
</svg>
